<svg width="35" height="38" viewBox="0 0 35 38" fill="none" xmlns="http://www.w3.org/2000/svg">
<path d="M16.5064 25.9396C18.408 25.9396 18.408 27.8593 20.3341 27.8593C23.2048 27.8593 23.4763 24.1624 21.5772 22.2771C19.6781 20.3918 19.6755 17.8781 16.5064 17.8781C13.3372 17.8781 13.3372 20.3918 11.4356 22.2771C9.53393 24.1624 9.80793 27.9329 12.6786 27.9329C14.6047 27.9329 14.6047 25.9396 16.5064 25.9396Z" fill="#000958"/>
<path d="M13.203 15.9637C14.5774 15.7665 15.4718 14.0747 15.2008 12.1849C14.9297 10.2951 13.5958 8.92293 12.2214 9.12007C10.847 9.31721 9.95253 11.009 10.2236 12.8988C10.4947 14.7886 11.8286 16.1608 13.203 15.9637Z" fill="#000958"/>
<path d="M22.784 12.8855C23.055 10.9957 22.1606 9.30386 20.7862 9.10673C19.4118 8.90959 18.0778 10.2818 17.8068 12.1716C17.5357 14.0614 18.4302 15.7532 19.8046 15.9503C21.179 16.1475 22.5129 14.7753 22.784 12.8855Z" fill="#000958"/>
<path d="M8.93682 20.2523C9.87392 19.7984 10.1429 18.4175 9.5376 17.168C8.93231 15.9185 7.68195 15.2737 6.74486 15.7276C5.80776 16.1816 5.53878 17.5625 6.14408 18.812C6.74937 20.0614 7.99973 20.7063 8.93682 20.2523Z" fill="#000958"/>
<path d="M26.8611 18.7968C27.4664 17.5473 27.1974 16.1664 26.2603 15.7124C25.3232 15.2585 24.0729 15.9034 23.4676 17.1528C22.8623 18.4023 23.1312 19.7832 24.0683 20.2371C25.0054 20.6911 26.2558 20.0462 26.8611 18.7968Z" fill="#000958"/>
<path d="M16.6587 0C26.7883 0 35 8.2117 35 18.3413C35 29.4827 25.4087 39.5433 12.6202 36.6827C10.2644 36.0096 6.56249 34.3269 4.54326 33.3173C2.52403 32.3077 2.86057 31.803 3.02884 31.6347C3.19711 31.4664 3.87018 31.1299 5.04807 31.6347C5.34307 31.7611 5.67367 31.91 6.03427 32.0724C7.11345 32.5583 8.46131 33.1652 9.92788 33.6539C10.9375 33.9904 12.6202 33.9904 13.4615 33.4856C13.9247 33.2077 14.6094 32.2776 14.1346 31.8029C13.7981 31.4663 12.7885 31.4663 11.1058 31.9712C9.42308 32.476 8.58173 31.6346 9.59135 30.9615C10.601 30.2885 12.2837 29.9519 14.4712 30.1202C15.217 30.1776 15.8259 30.2545 16.4313 30.331C17.6014 30.4788 18.7583 30.625 20.8654 30.625C27.6559 30.625 31.6346 24.6708 31.6346 18.3413C31.6346 10.0704 24.9296 3.36538 16.6587 3.36538C8.38766 3.36538 1.68269 10.0704 1.68269 18.3413C1.68269 23.1594 3.95792 27.446 7.49255 30.1855C2.95172 26.8817 0 21.5258 0 15.4806C0 6.35168 7.61916 0 16.6587 0Z" fill="url(#paint0_linear_16_16)"/>
<defs>
<linearGradient id="paint0_linear_16_16" x1="17.5" y1="0" x2="18.5" y2="47" gradientUnits="userSpaceOnUse">
<stop stop-color="#FF592C"/>
<stop offset="1" stop-color="#FF592C" stop-opacity="0"/>
</linearGradient>
</defs>
</svg>
